<svg width="20" height="20" viewBox="0 0 20 20" fill="none" xmlns="http://www.w3.org/2000/svg">
<mask id="mask0_524_8656" style="mask-type:alpha" maskUnits="userSpaceOnUse" x="2" y="1" width="16" height="18">
<path fill-rule="evenodd" clip-rule="evenodd" d="M15 13.4471C14.3667 13.4471 13.8 13.6981 13.3667 14.0913L7.425 10.6191C7.46667 10.4267 7.5 10.2342 7.5 10.0334C7.5 9.83262 7.46667 9.64019 7.425 9.44775L13.3 6.009C13.75 6.42734 14.3417 6.68671 15 6.68671C16.3833 6.68671 17.5 5.56555 17.5 4.17667C17.5 2.78778 16.3833 1.66663 15 1.66663C13.6167 1.66663 12.5 2.78778 12.5 4.17667C12.5 4.37747 12.5333 4.56991 12.575 4.76234L6.7 8.2011C6.25 7.78276 5.65833 7.52339 5 7.52339C3.61667 7.52339 2.5 8.64454 2.5 10.0334C2.5 11.4223 3.61667 12.5435 5 12.5435C5.65833 12.5435 6.25 12.2841 6.7 11.8658L12.6333 15.3463C12.5917 15.522 12.5667 15.7061 12.5667 15.8902C12.5667 17.2372 13.6583 18.3333 15 18.3333C16.3417 18.3333 17.4333 17.2372 17.4333 15.8902C17.4333 14.5431 16.3417 13.4471 15 13.4471Z" fill="white"/>
</mask>
<g mask="url(#mask0_524_8656)">
<rect width="20" height="20" fill="white"/>
</g>
</svg>
